<svg width="32" height="32" viewBox="0 0 32 32" fill="none" xmlns="http://www.w3.org/2000/svg">
<path d="M17.6326 10.0445C17.74 10.2217 17.8259 10.3775 17.8259 10.3936C17.8259 10.4043 17.6434 10.4151 17.4232 10.4151C17.203 10.4151 17.0204 10.399 17.0204 10.3828C17.0204 10.3399 17.3963 9.71692 17.4232 9.71692C17.4285 9.71692 17.5252 9.86192 17.6326 10.0445Z" fill="#111111"/>
<path fill-rule="evenodd" clip-rule="evenodd" d="M17.3695 10.5601C17.4017 10.6514 17.4071 10.6514 17.4769 10.5547C17.5521 10.458 17.5628 10.458 17.6917 10.544C17.9226 10.6943 18.0461 10.9467 18.0246 11.2206C18.0139 11.3549 17.9871 11.5053 17.9656 11.5536C17.9387 11.6127 17.9441 11.6502 17.9817 11.6502C18.0139 11.6502 18.175 11.7093 18.3469 11.7845C18.4944 11.8518 18.5286 12.0462 18.4128 12.1597L18.3737 12.198L18.2916 12.2818C18.1769 12.3987 18.0006 12.4298 17.8528 12.3591C17.4124 12.1443 17.3265 12.2195 17.5359 12.6223C17.6192 12.7887 17.5854 12.9898 17.4524 13.1199L17.4232 13.1486C17.1869 13.3849 17.1708 13.3903 17.0956 13.2936C17.0561 13.2371 17.0373 13.2103 17.0284 13.2132C17.0204 13.2159 17.0204 13.2427 17.0204 13.2936C17.0204 13.4923 16.7143 13.8736 15.9678 14.6147L15.4481 15.1307C15.3118 15.266 15.1056 15.3023 14.9313 15.2215C14.7111 15.1195 14.6252 15.098 14.5715 15.1464C14.5071 15.2001 14.5232 15.2538 14.6574 15.4847C14.7496 15.6499 14.7209 15.8563 14.5871 15.9901L14.5554 16.0217C14.3191 16.2527 14.2869 16.2688 14.2385 16.1828C14.1902 16.0969 14.1741 16.113 14.1258 16.301C14.0184 16.7091 13.6478 17.0797 13.2396 17.1871C12.6382 17.3482 12.0098 16.7467 12.0098 16.0002C12.0098 15.2806 12.6059 14.6469 13.2128 14.7275C13.2968 14.7385 13.3574 14.6489 13.3157 14.575L13.2987 14.5449C13.2289 14.4242 13.2478 14.2718 13.3451 14.1719L13.5834 13.9273C13.9754 13.5299 14.2976 13.3204 14.5285 13.3151C14.593 13.3151 14.7326 13.3741 14.8454 13.4493L14.8745 13.4698C14.913 13.4969 14.9611 13.452 14.9367 13.4117C14.9099 13.3635 14.8723 13.2991 14.8348 13.2347C14.7972 13.1704 14.7594 13.1056 14.7326 13.0573C14.6754 12.9556 14.6925 12.8282 14.7746 12.7452L15.1139 12.4021C15.6402 11.8758 15.8496 11.7577 16.1021 11.8651C16.3759 11.9778 16.4887 12.3108 16.3545 12.6169C16.3276 12.6867 16.3598 12.6975 16.5317 12.6814C16.6299 12.6713 16.6849 12.5632 16.6353 12.4779L16.1407 11.6279C16.0879 11.5371 16.0938 11.4236 16.1558 11.3388C16.2739 11.1669 16.87 10.6299 17.0365 10.5386C17.203 10.4473 17.3265 10.4527 17.3695 10.5601ZM16.925 11.4883C16.9322 11.4504 16.9629 11.417 17.0204 11.3545C17.3212 11.0323 17.536 11.3813 17.246 11.7143L17.2368 11.7244C17.1644 11.8041 17.0343 11.7847 16.9882 11.6875C16.9394 11.5812 16.9167 11.5318 16.925 11.4883ZM15.5597 12.7081C15.4201 12.8531 15.4201 12.9444 15.5543 13.0948C15.5973 13.1539 15.8927 12.7994 15.8927 12.6866C15.8927 12.5148 15.7315 12.5255 15.5597 12.7081ZM15.8819 13.6586C15.8228 13.5297 15.8335 13.5029 15.9946 13.3579C16.29 13.0947 16.4404 13.2827 16.188 13.6103C16.0215 13.8358 15.9624 13.8412 15.8819 13.6586ZM15.1677 14.0292C15.1677 14.1527 15.1462 14.3084 15.1247 14.3782C15.0871 14.4857 15.1086 14.5071 15.3342 14.6038C15.4738 14.6682 15.6081 14.7058 15.6295 14.7005C15.6564 14.6897 15.5597 14.4857 15.4201 14.244L15.2799 13.9993C15.2492 13.9459 15.1677 13.9676 15.1677 14.0292ZM14.0373 14.3786C14.0412 14.3366 14.0774 14.2978 14.1526 14.217C14.2331 14.1365 14.3298 14.0666 14.362 14.0666C14.4533 14.0666 14.55 14.1848 14.55 14.2868C14.55 14.3781 14.303 14.7111 14.2385 14.7111C14.217 14.7111 14.158 14.6359 14.1043 14.5392C14.0577 14.4591 14.0336 14.4175 14.0373 14.3786ZM13.4221 15.0603C13.3899 15.1355 13.3416 15.259 13.3147 15.3342C13.2717 15.447 13.2341 15.4684 13.1267 15.4416C13.0354 15.4201 12.9549 15.447 12.8475 15.5383C12.5843 15.7638 12.6864 16.2847 13.0247 16.4405C13.2019 16.521 13.4329 16.3545 13.4973 16.0914C13.5403 15.9195 13.5671 15.8981 13.7819 15.8658C13.9054 15.8497 14.0129 15.8229 14.0129 15.8068C14.0129 15.7692 13.5188 14.926 13.4919 14.926C13.4812 14.926 13.449 14.9851 13.4221 15.0603Z" fill="#111111"/>
<path fill-rule="evenodd" clip-rule="evenodd" d="M17.2405 0.426105C19.6089 0.662401 21.9664 1.46796 23.9213 2.69777C27.4764 4.94259 29.9361 8.43333 30.8437 12.5094C31.1122 13.7339 31.1713 14.3085 31.1713 15.8659C31.1713 16.9776 31.1444 17.4663 31.0746 17.9604C30.7524 20.1354 30.0596 22.1009 28.9748 23.8893C28.8083 24.1685 28.674 24.4048 28.674 24.4209C28.674 24.437 29.2594 25.0439 29.979 25.7689C31.0155 26.8215 31.3216 27.1598 31.4613 27.4337C31.7029 27.8956 31.7889 28.2393 31.7889 28.7817C31.7889 29.6141 31.5472 30.2048 30.9564 30.8009C30.5644 31.1983 30.1187 31.4615 29.6407 31.5689C29.3024 31.6494 28.5344 31.6387 28.2176 31.5528C27.557 31.3755 27.3261 31.2037 25.9513 29.8396L24.6516 28.5507L24.1522 28.8783C22.2779 30.0974 20.264 30.8493 17.8527 31.2305C17.015 31.3594 14.9581 31.3917 14.0452 31.2843C11.5802 30.9996 9.24404 30.1618 7.27312 28.8676C6.89182 28.6152 6.55886 28.4057 6.53737 28.4057C6.49441 28.4057 5.56534 28.7656 2.57404 29.9417C1.73089 30.2693 1.03812 30.5378 1.03275 30.5324C1.022 30.5217 1.24219 29.9417 2.22497 27.4391C2.32233 27.1893 2.43055 26.9128 2.53415 26.6481C2.69341 26.2413 2.84177 25.8622 2.92311 25.6507C3.06274 25.3017 3.16478 25.0009 3.15404 24.9794C3.1433 24.958 2.95534 24.6626 2.72441 24.3243C1.52682 22.5198 0.705152 20.3609 0.345337 18.0409C0.227188 17.2944 0.178855 15.302 0.259411 14.4696C0.576262 11.1722 1.81682 8.24537 3.97571 5.71592C6.43534 2.83203 10.0442 0.920181 13.9055 0.45833C14.652 0.367033 16.4779 0.35092 17.2405 0.426105ZM14.3084 0.861175C11.1506 1.15654 8.08946 2.46692 5.79631 4.50229C4.98539 5.22729 4.87798 5.32932 4.32483 5.97914C2.3915 8.24543 1.23687 10.748 0.7965 13.648C0.65687 14.561 0.608537 16.2258 0.689093 17.128C0.930759 19.7595 1.7578 22.1064 3.20243 24.2545L3.48504 24.6801C3.59438 24.8447 3.61905 25.0515 3.5515 25.2373C3.42798 25.5703 2.70298 27.4338 2.16057 28.7978C2.06003 29.0548 1.97111 29.2914 1.91118 29.4608C1.85053 29.6323 1.92094 29.6999 2.09215 29.6385C2.65351 29.4373 4.08266 28.8875 5.95205 28.148C6.36946 27.9865 6.83943 28.0385 7.21137 28.2875L7.2678 28.3253C11.3278 31.0695 16.4834 31.671 21.0482 29.9364C22.0685 29.5497 24.1898 28.4112 24.2543 28.2178C24.265 28.1856 23.8998 27.7936 23.4434 27.3371L22.9391 26.8361C22.7489 26.6472 22.4552 26.6103 22.2243 26.7464C21.22 27.3317 19.7754 27.8956 18.6852 28.1319C16.9452 28.5025 14.8937 28.5025 13.1537 28.1319C11.9346 27.8688 10.3182 27.2028 9.21724 26.5101C6.51595 24.7969 4.50206 22.1064 3.67502 19.0882C2.81576 15.9358 3.19706 12.5793 4.75446 9.71692C5.11428 9.05636 5.28613 8.79858 5.33983 8.84691C5.36669 8.8684 5.36669 8.85229 5.3452 8.81469C5.28613 8.71266 6.15076 7.59562 6.80594 6.92969C7.57391 6.15636 8.10557 5.71599 8.9165 5.17895C10.5491 4.09414 12.2891 3.44432 14.3084 3.15432C15.0548 3.05229 16.913 3.0684 17.6917 3.18654C19.4102 3.44969 20.9945 4.01895 22.4176 4.87821C23.3789 5.46358 24.0072 5.95765 24.8611 6.81154C25.5485 7.49358 25.6291 7.59025 25.5324 7.62784C25.4465 7.66543 23.0137 8.26691 22.9493 8.26691C22.9385 8.26691 22.7774 8.13266 22.5948 7.96618C22.1008 7.5258 21.2791 6.96729 20.6132 6.62895C17.6702 5.11988 14.3352 5.08228 11.403 6.51617C10.8337 6.79543 9.78113 7.43451 9.66298 7.56877C9.64687 7.58488 9.43743 7.7621 9.20113 7.9608C7.5578 9.31414 6.29039 11.473 5.8178 13.7178C5.64594 14.5341 5.5815 16.0754 5.68891 16.9562C5.69988 17.0487 5.71131 17.138 5.72227 17.2187C5.75486 17.459 5.87847 17.5074 6.05601 17.3423C6.35498 17.0642 6.86662 16.5679 7.43965 15.9949C8.0608 15.3737 8.60725 14.8376 8.88987 14.5702C9.02199 14.4452 9.15864 14.4531 9.28822 14.5808C9.64192 14.9291 10.4387 15.7139 11.3546 16.6178L11.5763 16.8347C12.4523 17.6917 13.19 18.4134 13.4892 18.7016C13.5833 18.7923 13.6808 18.7942 13.7751 18.7037C14.1949 18.301 15.4862 17.0243 16.9882 15.5223L19.2918 13.2186C19.8619 12.6486 19.8715 11.7273 19.3135 11.1454C18.7604 10.5708 18.3254 10.0928 18.3469 10.0767C18.4274 10.0284 25.7204 8.2508 25.7419 8.27229C25.7526 8.28303 25.6076 8.93284 25.4196 9.71692C25.2317 10.501 24.8934 11.9027 24.6678 12.8317C24.0287 15.4578 23.9643 15.7049 23.8837 15.6888C23.8461 15.678 23.3789 15.2162 22.8419 14.6684C22.3078 14.1166 21.4251 14.11 20.8829 14.6537L17.783 17.7617C15.5328 20.0119 13.6639 21.854 13.6317 21.854C13.5995 21.854 12.5522 20.839 11.3117 19.5984L10.332 18.6233C9.62091 17.9156 8.47123 17.917 7.76187 18.6264L6.91823 19.47C6.65615 19.7321 6.5934 20.1335 6.76298 20.463C7.09057 21.1182 7.72965 22.0527 8.17002 22.5199C8.28003 22.6376 8.47736 22.5602 8.47805 22.3991L8.4815 21.5962V20.7058C8.4815 20.4739 8.56984 20.2508 8.72854 20.0817C8.86817 19.9314 9.01854 19.8132 9.0615 19.8132C9.1528 19.8132 11.8971 22.5091 12.1387 22.8421C12.2399 22.9781 12.2945 23.1431 12.2945 23.3125V24.8046C12.2945 25.1476 12.5192 25.4499 12.8476 25.5488C13.5296 25.7636 13.9378 25.8495 14.0506 25.8065C14.1258 25.7743 14.1311 25.6615 14.1096 24.8721C14.0882 24.1847 14.0935 23.943 14.1526 23.841C14.1902 23.7658 15.0387 22.8958 16.0376 21.9077C16.7133 21.2379 17.8619 21.7129 17.8672 22.6642L17.8689 22.9603L17.8783 25.455C17.879 25.6419 18.0513 25.7809 18.2341 25.7421C18.4274 25.6991 18.8195 25.5864 19.1041 25.4897C19.4155 25.387 19.6267 25.0972 19.6292 24.7693L19.6761 18.6782C19.6778 18.4535 19.7564 18.2362 19.8989 18.0625C20.0224 17.9175 20.5165 17.4127 20.9945 16.9454L21.0568 16.8842C21.5041 16.4452 22.2215 16.4486 22.6646 16.8917C23.1772 17.4077 23.4648 18.1055 23.4648 18.8327V22.2514C23.4648 22.3959 23.6443 22.4627 23.7387 22.3534C24.1415 21.8862 24.8182 20.8443 25.1243 20.2267C25.8761 18.6854 26.193 17.1656 26.1339 15.3827C26.1017 14.3462 25.9889 13.6427 25.6828 12.6599C25.5563 12.2487 25.5436 11.8109 25.6461 11.3931L25.9084 10.3238C26.0314 9.81116 26.1464 9.34649 26.2265 9.02821C26.2988 8.74032 26.4418 8.7017 26.6 8.95286C26.7637 9.21265 26.9735 9.57134 27.1382 9.8834C27.8578 11.2421 28.3465 12.8317 28.5076 14.3462C28.5828 15.0175 28.5828 16.446 28.5076 17.1173C28.3304 18.7714 27.7558 20.5651 26.9502 21.9775C26.7884 22.2631 26.837 22.6215 27.0691 22.8536L27.4711 23.2556C27.9115 23.696 28.2821 24.0558 28.2982 24.0558C28.3572 24.0558 28.7171 23.4543 29.1091 22.6864C30.8491 19.2923 31.2197 15.3451 30.1456 11.6395C29.5172 9.48062 28.3626 7.42914 26.8052 5.71599C24.8719 3.58395 22.2189 1.98895 19.4371 1.28543C17.7884 0.866545 15.9195 0.710804 14.3084 0.861175Z" fill="#111111"/>
</svg>
