<svg width="55" height="55" viewBox="0 0 55 55" fill="none" xmlns="http://www.w3.org/2000/svg">
<path d="M30.3225 16.8322C30.5095 17.1408 30.6592 17.412 30.6592 17.4401C30.6592 17.4588 30.3412 17.4775 29.9578 17.4775C29.5743 17.4775 29.2564 17.4495 29.2564 17.4214C29.2564 17.3466 29.911 16.2618 29.9578 16.2618C29.9671 16.2618 30.1354 16.5143 30.3225 16.8322Z" fill="#111111"/>
<path fill-rule="evenodd" clip-rule="evenodd" d="M29.8642 17.73C29.9204 17.889 29.9297 17.889 30.0513 17.7207C30.1822 17.5523 30.2009 17.5523 30.4254 17.702C30.8275 17.9638 31.0426 18.4033 31.0052 18.8803C30.9865 19.1141 30.9397 19.3759 30.9023 19.4601C30.8555 19.563 30.8649 19.6284 30.9304 19.6284C30.9865 19.6284 31.267 19.7313 31.5663 19.8622C31.8232 19.9794 31.8827 20.3179 31.6811 20.5156L31.613 20.5823L31.47 20.7282C31.2703 20.9318 30.9632 20.9859 30.7059 20.8629C29.9391 20.4888 29.7894 20.6197 30.1542 21.3211C30.299 21.6109 30.2403 21.9611 30.0087 22.1877L29.9578 22.2376C29.5463 22.6491 29.5182 22.6584 29.3873 22.4901C29.3185 22.3918 29.2858 22.3451 29.2703 22.3502C29.2564 22.3548 29.2564 22.4015 29.2564 22.4901C29.2564 22.8361 28.7233 23.5001 27.4234 24.7907L26.5184 25.6891C26.281 25.9248 25.9221 25.988 25.6185 25.8474C25.2351 25.6697 25.0855 25.6323 24.9919 25.7165C24.8797 25.81 24.9078 25.9035 25.1416 26.3057C25.302 26.5934 25.252 26.9527 25.019 27.1857L24.9639 27.2408C24.5524 27.643 24.4963 27.671 24.4121 27.5214C24.328 27.3718 24.2999 27.3998 24.2157 27.7271C24.0287 28.4379 23.3834 29.0832 22.6727 29.2702C21.6253 29.5508 20.5311 28.5033 20.5311 27.2034C20.5311 25.9503 21.5692 24.8468 22.6259 24.987C22.7722 25.0063 22.8777 24.8502 22.8052 24.7216L22.7755 24.6691C22.6539 24.4589 22.6869 24.1935 22.8563 24.0196L23.2712 23.5936C23.9539 22.9016 24.515 22.5369 24.9171 22.5275C25.0293 22.5275 25.2725 22.6304 25.4689 22.7613L25.5196 22.797C25.5867 22.8441 25.6703 22.7659 25.6279 22.6958C25.5812 22.6118 25.5158 22.4997 25.4504 22.3876C25.385 22.2756 25.3192 22.1627 25.2725 22.0786C25.1728 21.9015 25.2027 21.6797 25.3456 21.5352L25.9365 20.9377C26.853 20.0212 27.2177 19.8155 27.6572 20.0025C28.1342 20.1989 28.3305 20.7787 28.0968 21.3118C28.05 21.4333 28.1061 21.452 28.4054 21.424C28.5763 21.4065 28.6721 21.2182 28.5857 21.0697L27.7245 19.5895C27.6325 19.4313 27.6428 19.2337 27.7507 19.086C27.9565 18.7868 28.9945 17.8516 29.2844 17.6926C29.5743 17.5336 29.7894 17.543 29.8642 17.73ZM29.0903 19.3464C29.1028 19.2804 29.1563 19.2222 29.2565 19.1134C29.7802 18.5523 30.1542 19.1602 29.6492 19.74L29.6332 19.7576C29.5071 19.8963 29.2806 19.8626 29.2003 19.6932C29.1154 19.5083 29.0758 19.4222 29.0903 19.3464ZM26.7127 21.4706C26.4696 21.7231 26.4696 21.8821 26.7034 22.1439C26.7782 22.2468 27.2926 21.6296 27.2926 21.4332C27.2926 21.1339 27.012 21.1526 26.7127 21.4706ZM27.2738 23.1257C27.1709 22.9013 27.1896 22.8545 27.4702 22.602C27.9845 22.1438 28.2464 22.4711 27.8068 23.0416C27.5169 23.4343 27.4141 23.4437 27.2738 23.1257ZM26.0301 23.771C26.0301 23.9861 25.9927 24.2573 25.9553 24.3789C25.8898 24.5659 25.9272 24.6034 26.32 24.7717C26.5632 24.8839 26.797 24.9494 26.8344 24.94C26.8811 24.9213 26.7128 24.5659 26.4697 24.1451L26.2254 23.719C26.1721 23.6261 26.0301 23.6639 26.0301 23.771ZM24.0616 24.3795C24.0685 24.3065 24.1315 24.2388 24.2624 24.0981C24.4027 23.9579 24.5711 23.8363 24.6272 23.8363C24.7862 23.8363 24.9545 24.042 24.9545 24.2197C24.9545 24.3787 24.5243 24.9585 24.4121 24.9585C24.3747 24.9585 24.2718 24.8276 24.1783 24.6593C24.0972 24.5197 24.0552 24.4473 24.0616 24.3795ZM22.9904 25.5666C22.9343 25.6975 22.8501 25.9126 22.8034 26.0436C22.7286 26.2399 22.6631 26.2774 22.4761 26.2306C22.3171 26.1932 22.1768 26.2399 21.9898 26.3989C21.5315 26.7917 21.7092 27.6988 22.2984 27.97C22.607 28.1103 23.0091 27.8204 23.1213 27.3622C23.1962 27.0629 23.2429 27.0255 23.617 26.9694C23.8321 26.9413 24.0191 26.8946 24.0191 26.8665C24.0191 26.8011 23.1587 25.3328 23.112 25.3328C23.0933 25.3328 23.0372 25.4357 22.9904 25.5666Z" fill="#111111"/>
<path fill-rule="evenodd" clip-rule="evenodd" d="M29.6397 0.082943C33.7639 0.494425 37.8693 1.8972 41.2734 4.03878C47.4643 7.94785 51.7475 14.0266 53.328 21.1246C53.7955 23.2568 53.8984 24.2575 53.8984 26.9695C53.8984 28.9054 53.8517 29.7564 53.7301 30.6167C53.169 34.4042 51.9626 37.827 50.0735 40.9412C49.7836 41.4275 49.5498 41.839 49.5498 41.867C49.5498 41.8951 50.5692 42.9518 51.8223 44.2143C53.6272 46.0473 54.1603 46.6365 54.4034 47.1134C54.8242 47.9177 54.9739 48.5162 54.9739 49.4607C54.9739 50.9103 54.553 51.939 53.5243 52.977C52.8417 53.6691 52.0655 54.1273 51.2331 54.3143C50.644 54.4546 49.3066 54.4359 48.7549 54.2863C47.6046 53.9777 47.2025 53.6784 44.8084 51.303L42.5453 49.0586L41.6755 49.6291C38.4117 51.7519 34.9048 53.0612 30.7058 53.7252C29.2469 53.9496 25.6652 54.0057 24.0754 53.8187C19.7829 53.323 15.7148 51.8641 12.2827 49.6104C11.6187 49.1708 11.0389 48.8061 11.0015 48.8061C10.9267 48.8061 9.30878 49.4327 4.0998 51.4807C2.63156 52.0512 1.42517 52.5188 1.41582 52.5094C1.39712 52.4907 1.78054 51.4807 3.49194 47.1228C3.66149 46.6878 3.84993 46.2064 4.03034 45.7455C4.30767 45.0369 4.56602 44.3769 4.70767 44.0086C4.95082 43.4007 5.12851 42.877 5.1098 42.8396C5.0911 42.8022 4.76379 42.2878 4.36165 41.6987C2.27619 38.5565 0.84536 34.797 0.218786 30.757C0.0130444 29.4571 -0.0711231 25.9876 0.0691547 24.538C0.620914 18.796 2.78119 13.6992 6.54064 9.29452C10.8238 4.27258 17.1082 0.943317 23.8322 0.139059C25.1321 -0.0199223 28.3117 -0.0479813 29.6397 0.082943ZM24.5337 0.840565C19.0348 1.35492 13.7042 3.63677 9.71101 7.18112C8.29888 8.44362 8.11184 8.62131 7.1486 9.75288C3.78193 13.6994 1.77128 18.0573 1.00443 23.1073C0.761282 24.6971 0.677116 27.5962 0.817394 29.1673C1.23823 33.7497 2.67841 37.8365 5.19406 41.5772L5.6862 42.3183C5.8766 42.6051 5.91955 42.9652 5.80193 43.2886C5.58684 43.8684 4.32434 47.1135 3.3798 49.4889C3.20472 49.9363 3.04987 50.3484 2.94551 50.6434C2.8399 50.942 2.9625 51.0597 3.26065 50.9528C4.23819 50.6025 6.72688 49.645 9.98221 48.3573C10.7091 48.076 11.5275 48.1666 12.1752 48.6002L12.2734 48.6659C19.3434 53.4447 28.3212 54.4921 36.2703 51.4715C38.0471 50.7982 41.7411 48.8156 41.8533 48.4789C41.872 48.4228 41.2361 47.7401 40.4412 46.9452L39.5631 46.0728C39.2319 45.7438 38.7205 45.6796 38.3183 45.9165C36.5695 46.9358 34.0539 47.9178 32.1554 48.3293C29.1255 48.9745 25.553 48.9745 22.523 48.3293C20.4002 47.871 17.5853 46.7114 15.6681 45.505C10.9642 42.5218 7.45721 37.8365 6.01702 32.5808C4.52073 27.0912 5.18471 21.2463 7.89675 16.2618C8.52332 15.1115 8.82258 14.6626 8.9161 14.7468C8.96286 14.7842 8.96286 14.7561 8.92545 14.6907C8.82258 14.513 10.3282 12.5678 11.4692 11.4082C12.8065 10.0615 13.7323 9.29464 15.1444 8.35945C17.9874 6.47038 21.0174 5.33881 24.5337 4.83381C25.8336 4.65612 29.0693 4.68418 30.4254 4.88992C33.418 5.34816 36.1768 6.33945 38.655 7.83575C40.329 8.8551 41.4231 9.71547 42.9101 11.2024C44.1071 12.3901 44.2474 12.5584 44.0791 12.6239C43.9294 12.6894 39.693 13.7368 39.5808 13.7368C39.5621 13.7368 39.2816 13.503 38.9636 13.2131C38.1032 12.4462 36.6724 11.4736 35.5128 10.8845C30.388 8.25658 24.5805 8.19112 19.4743 10.6881C18.483 11.1744 16.6501 12.2872 16.4443 12.521C16.4163 12.5491 16.0516 12.8577 15.6401 13.2037C12.7784 15.5604 10.5714 19.3198 9.74841 23.2289C9.44915 24.6504 9.33693 27.3344 9.52397 28.8681C9.54308 29.0291 9.56298 29.1846 9.58206 29.3252C9.63882 29.7436 9.85406 29.828 10.1632 29.5404C10.6839 29.0562 11.5748 28.1919 12.5727 27.1941C13.6543 26.1124 14.6059 25.1788 15.098 24.7132C15.3281 24.4956 15.5661 24.5093 15.7917 24.7316C16.4077 25.3382 17.7952 26.7048 19.3902 28.2789L19.7762 28.6566C21.3016 30.1489 22.5863 31.4056 23.1072 31.9075C23.2711 32.0654 23.4409 32.0687 23.6051 31.9112C24.3362 31.2099 26.5847 28.9867 29.2003 26.3711L33.2118 22.3596C34.2045 21.3669 34.2213 19.7626 33.2496 18.7494C32.2864 17.7487 31.5289 16.9164 31.5663 16.8883C31.7066 16.8042 44.4064 13.7087 44.4438 13.7461C44.4625 13.7648 44.21 14.8964 43.8827 16.2618C43.5554 17.6271 42.9662 20.068 42.5734 21.6858C41.4605 26.2589 41.3483 26.6891 41.208 26.661C41.1426 26.6423 40.329 25.8381 39.3938 24.8842C38.4638 23.9234 36.9267 23.9118 35.9824 24.8586L30.5843 30.2708C26.6659 34.1893 23.4115 37.397 23.3554 37.397C23.2992 37.397 21.4756 35.6295 19.3154 33.4692L17.6093 31.7712C16.3711 30.5388 14.369 30.5412 13.1338 31.7765L11.6647 33.2456C11.2083 33.702 11.099 34.4009 11.3943 34.9748C11.9648 36.1158 13.0777 37.743 13.8445 38.5566C14.0361 38.7616 14.3797 38.6269 14.3809 38.3463L14.3869 36.9481V35.3976C14.3869 34.9938 14.5408 34.6052 14.8171 34.3108C15.0603 34.049 15.3221 33.8433 15.3969 33.8433C15.5559 33.8433 20.3347 38.5379 20.7555 39.1177C20.9316 39.3545 21.0267 39.6418 21.0267 39.9369V42.5352C21.0267 43.1324 21.4182 43.6589 21.99 43.831C23.1777 44.2051 23.8884 44.3547 24.0848 44.2799C24.2157 44.2238 24.2251 44.0274 24.1877 42.6527C24.1503 41.4557 24.1596 41.0348 24.2625 40.8571C24.328 40.7262 25.8055 39.2112 27.545 37.4905C28.7217 36.3242 30.7217 37.1512 30.7311 38.808L30.734 39.3234L30.7503 43.6677C30.7515 43.9931 31.0515 44.2352 31.3699 44.1677C31.7066 44.0929 32.3893 43.8965 32.8849 43.7282C33.4271 43.5493 33.795 43.0447 33.7994 42.4737L33.8809 31.8668C33.8839 31.4755 34.0209 31.0971 34.269 30.7945C34.4841 30.542 35.3444 29.663 36.1768 28.8494L36.2854 28.7428C37.0642 27.9783 38.3135 27.9842 39.0852 28.7558C39.9777 29.6544 40.4786 30.8694 40.4786 32.1358V38.0891C40.4786 38.3406 40.7911 38.457 40.9555 38.2667C41.6569 37.4531 42.8353 35.6388 43.3683 34.5633C44.6776 31.8794 45.2293 29.2328 45.1265 26.128C45.0704 24.3231 44.874 23.098 44.3409 21.3866C44.1206 20.6705 44.0985 19.9082 44.277 19.1806L44.7337 17.3185C44.9479 16.4259 45.1482 15.6167 45.2876 15.0625C45.4137 14.5611 45.6625 14.4939 45.9381 14.9313C46.2232 15.3837 46.5885 16.0083 46.8753 16.5517C48.1284 18.9177 48.9794 21.6858 49.26 24.3231C49.3909 25.4921 49.3909 27.9796 49.26 29.1486C48.9514 32.029 47.9507 35.1525 46.548 37.612C46.2661 38.1094 46.3509 38.7336 46.7551 39.1378L47.4551 39.8378C48.2219 40.6046 48.8672 41.2312 48.8953 41.2312C48.9981 41.2312 49.6247 40.1838 50.3074 38.8465C53.3374 32.9361 53.9827 26.0625 52.1123 19.6097C51.0181 15.8503 49.0075 12.2779 46.2954 9.29464C42.9288 5.58195 38.309 2.80445 33.4647 1.57936C30.5937 0.849916 27.3392 0.578712 24.5337 0.840565Z" fill="#111111"/>
</svg>
